<svg width="47" height="47" viewBox="0 0 47 47" fill="none" xmlns="http://www.w3.org/2000/svg">
<circle cx="23.5" cy="23.5" r="23.5" fill="url(#paint0_linear_110_70)"/>
<path d="M27.1648 14C28.4918 14 29.7644 14.5268 30.7027 15.4645C31.641 16.4021 32.1682 17.6739 32.1682 19V27C32.1682 28.3261 31.641 29.5979 30.7027 30.5355C29.7644 31.4732 28.4918 32 27.1648 32H19.1596C17.8326 32 16.56 31.4732 15.6217 30.5355C14.6834 29.5979 14.1562 28.3261 14.1562 27V19C14.1562 17.6739 14.6834 16.4021 15.6217 15.4645C16.56 14.5268 17.8326 14 19.1596 14H27.1648ZM23.1622 19C22.1006 19 21.0825 19.4214 20.3319 20.1716C19.5813 20.9217 19.1596 21.9391 19.1596 23C19.1596 24.0609 19.5813 25.0783 20.3319 25.8284C21.0825 26.5786 22.1006 27 23.1622 27C24.2238 27 25.2419 26.5786 25.9925 25.8284C26.7431 25.0783 27.1648 24.0609 27.1648 23C27.1648 21.9391 26.7431 20.9217 25.9925 20.1716C25.2419 19.4214 24.2238 19 23.1622 19ZM23.1622 21C23.693 21 24.202 21.2107 24.5774 21.5858C24.9527 21.9609 25.1635 22.4696 25.1635 23C25.1635 23.5304 24.9527 24.0391 24.5774 24.4142C24.202 24.7893 23.693 25 23.1622 25C22.6314 25 22.1224 24.7893 21.7471 24.4142C21.3717 24.0391 21.1609 23.5304 21.1609 23C21.1609 22.4696 21.3717 21.9609 21.7471 21.5858C22.1224 21.2107 22.6314 21 23.1622 21ZM27.6652 17.5C27.3998 17.5 27.1453 17.6054 26.9576 17.7929C26.7699 17.9804 26.6645 18.2348 26.6645 18.5C26.6645 18.7652 26.7699 19.0196 26.9576 19.2071C27.1453 19.3946 27.3998 19.5 27.6652 19.5C27.9306 19.5 28.1851 19.3946 28.3728 19.2071C28.5604 19.0196 28.6658 18.7652 28.6658 18.5C28.6658 18.2348 28.5604 17.9804 28.3728 17.7929C28.1851 17.6054 27.9306 17.5 27.6652 17.5Z" fill="#E6E6E6"/>
<defs>
<linearGradient id="paint0_linear_110_70" x1="7.44302e-08" y1="17.9884" x2="47" y2="29.0116" gradientUnits="userSpaceOnUse">
<stop stop-color="#D07FF6"/>
<stop offset="1" stop-color="#8652FA"/>
</linearGradient>
</defs>
</svg>
