<svg width="47" height="47" viewBox="0 0 47 47" fill="none" xmlns="http://www.w3.org/2000/svg">
<circle cx="23.5" cy="23.5" r="23.5" fill="url(#paint0_linear_110_86)"/>
<path d="M31.5699 20.722C31.5772 20.8847 31.5809 21.0473 31.5809 21.21C31.5809 26.2 27.7814 31.952 20.8338 31.952C18.6994 31.952 16.7151 31.327 15.043 30.255C16.032 30.3744 17.0349 30.2979 17.9943 30.0298C18.9537 29.7618 19.8509 29.3076 20.6347 28.693C19.8466 28.678 19.0829 28.4173 18.4503 27.9474C17.8178 27.4775 17.3479 26.8218 17.1063 26.072C17.6728 26.1778 18.2557 26.1556 18.8125 26.007C17.9576 25.8336 17.189 25.3702 16.6368 24.6954C16.0846 24.0206 15.7828 23.1757 15.7825 22.304V22.257C16.3075 22.5474 16.8939 22.7095 17.4936 22.73C16.6929 22.1966 16.1262 21.3779 15.909 20.4411C15.6918 19.5043 15.8405 18.52 16.3248 17.689C17.2734 18.8553 18.4568 19.8092 19.7982 20.4888C21.1395 21.1685 22.6089 21.5586 24.111 21.634C24.0459 21.3516 24.0133 21.0628 24.0139 20.773C24.0139 20.2774 24.1116 19.7867 24.3014 19.3289C24.4912 18.8711 24.7694 18.4551 25.1201 18.1047C25.4708 17.7544 25.8871 17.4765 26.3453 17.2869C26.8034 17.0974 27.2945 16.9999 27.7904 17C28.3072 16.9992 28.8187 17.1044 29.2931 17.3093C29.7675 17.5142 30.1947 17.8143 30.5482 18.191C31.3939 18.0237 32.205 17.714 32.9468 17.275C32.6638 18.1487 32.0737 18.8905 31.2857 19.363C32.0343 19.2736 32.7655 19.0734 33.4551 18.769C32.9491 19.5278 32.3105 20.1893 31.5699 20.722Z" fill="#E6E6E6"/>
<defs>
<linearGradient id="paint0_linear_110_86" x1="7.44302e-08" y1="17.9884" x2="47" y2="29.0116" gradientUnits="userSpaceOnUse">
<stop stop-color="#D07FF6"/>
<stop offset="1" stop-color="#8652FA"/>
</linearGradient>
</defs>
</svg>
