<svg width="73" height="24" viewBox="0 0 73 24" fill="none" xmlns="http://www.w3.org/2000/svg">
<path d="M48.9084 19.124V21.3162H40.457V19.124H48.9084ZM57.4811 5.54206H60.5221V14.4599C60.5221 15.5171 60.2983 16.4064 59.8505 17.1278C59.409 17.8492 58.7933 18.3933 58.0035 18.7602C57.2137 19.1271 56.2995 19.3106 55.261 19.3106C54.2162 19.3106 53.2958 19.1271 52.4998 18.7602C51.71 18.3933 51.0882 17.8492 50.6342 17.1278C50.1864 16.4064 49.9625 15.5171 49.9625 14.4599V5.54206H53.0129V14.4599C53.0129 15.0445 53.1 15.5233 53.2741 15.8964C53.4544 16.2634 53.7125 16.5339 54.0483 16.708C54.3841 16.8759 54.7884 16.9599 55.261 16.9599C55.7336 16.9599 56.1347 16.8759 56.4643 16.708C56.8002 16.5339 57.052 16.2634 57.2199 15.8964C57.3941 15.5233 57.4811 15.0445 57.4811 14.4599V5.54206ZM65.4661 10.9711V23.0046H62.5557V9.03083H65.2702L65.4661 10.9711ZM71.7627 13.9655V14.1614C71.7627 14.8952 71.6788 15.5762 71.5109 16.2043C71.3429 16.8262 71.0911 17.3703 70.7553 17.8367C70.4257 18.3031 70.0183 18.6669 69.5333 18.9281C69.0482 19.1831 68.4854 19.3106 67.8448 19.3106C67.2354 19.3106 66.7068 19.1831 66.259 18.9281C65.8175 18.6669 65.4444 18.3062 65.1396 17.8461C64.8411 17.3796 64.5986 16.8479 64.412 16.2509C64.2317 15.6477 64.0918 15.004 63.9923 14.32V13.9375C64.0918 13.2099 64.2348 12.5352 64.4214 11.9133C64.6079 11.2914 64.8505 10.7535 65.149 10.2995C65.4475 9.83928 65.8175 9.4817 66.259 9.22673C66.7006 8.97175 67.2261 8.84427 67.8355 8.84427C68.4698 8.84427 69.0326 8.96553 69.5239 9.20807C70.0152 9.4506 70.4257 9.79886 70.7553 10.2528C71.0911 10.7006 71.3429 11.2385 71.5109 11.8666C71.6788 12.4947 71.7627 13.1944 71.7627 13.9655ZM68.843 14.1614V13.9655C68.843 13.555 68.8119 13.1788 68.7497 12.8368C68.6875 12.4885 68.588 12.1869 68.4512 11.9319C68.3144 11.6707 68.134 11.4686 67.9101 11.3256C67.6863 11.1826 67.4126 11.111 67.0892 11.111C66.741 11.111 66.4456 11.167 66.2031 11.2789C65.9605 11.3909 65.7646 11.5557 65.6154 11.7733C65.4661 11.9848 65.3573 12.246 65.2889 12.5569C65.2267 12.8679 65.1925 13.2223 65.1863 13.6203V14.6465C65.1925 15.1129 65.2578 15.5295 65.3822 15.8964C65.5128 16.2571 65.7149 16.5401 65.9885 16.7453C66.2684 16.9443 66.6415 17.0438 67.1079 17.0438C67.4375 17.0438 67.7111 16.9723 67.9288 16.8293C68.1527 16.68 68.3299 16.4717 68.4605 16.2043C68.5973 15.9369 68.6937 15.629 68.7497 15.2808C68.8119 14.9325 68.843 14.5594 68.843 14.1614Z" fill="white"/>
<path d="M0 0H22.4757C31.7854 0 39.3324 7.54702 39.3324 16.8567V22.4757H0V0Z" fill="#C97CF8"/>
<path d="M11.3581 11.0084V13.3592H4.3246V11.0084H11.3581ZM5.28541 5.54206V19.124H2.24439V5.54206H5.28541ZM13.457 5.54206V19.124H10.4253V5.54206H13.457ZM18.6342 9.03083V19.124H15.7144V9.03083H18.6342ZM15.5372 6.41892C15.5372 5.99603 15.6864 5.65089 15.9849 5.38348C16.2834 5.10985 16.6752 4.97303 17.1603 4.97303C17.6454 4.97303 18.0372 5.10985 18.3357 5.38348C18.6404 5.65089 18.7927 5.99603 18.7927 6.41892C18.7927 6.83558 18.6404 7.18072 18.3357 7.45435C18.0372 7.72176 17.6454 7.85547 17.1603 7.85547C16.6752 7.85547 16.2834 7.72176 15.9849 7.45435C15.6864 7.18072 15.5372 6.83558 15.5372 6.41892ZM23.6528 11.3816V19.124H20.7424V9.03083H23.4755L23.6528 11.3816ZM26.6658 8.95621L26.6192 11.6707C26.4948 11.6521 26.3331 11.6365 26.1341 11.6241C25.9351 11.6054 25.7641 11.5961 25.621 11.5961C25.2479 11.5961 24.9245 11.6427 24.6509 11.736C24.3835 11.8231 24.1596 11.9537 23.9793 12.1278C23.8051 12.3019 23.6745 12.5196 23.5875 12.7808C23.5004 13.0358 23.4569 13.3312 23.4569 13.667L22.9065 13.3965C22.9065 12.731 22.9718 12.1216 23.1024 11.5681C23.233 11.0146 23.4227 10.5358 23.6714 10.1316C23.9202 9.72112 24.2249 9.40396 24.5856 9.18008C24.9463 8.95621 25.3567 8.84427 25.8169 8.84427C25.9662 8.84427 26.1186 8.85359 26.274 8.87225C26.4295 8.89091 26.5601 8.91889 26.6658 8.95621ZM32.4307 19.3106C31.6285 19.3106 30.9102 19.1831 30.2759 18.9281C29.6415 18.6732 29.1036 18.3218 28.6621 17.874C28.2267 17.4201 27.894 16.8977 27.6639 16.3069C27.4338 15.7161 27.3188 15.0849 27.3188 14.4132V14.0588C27.3188 13.3063 27.4245 12.6129 27.636 11.9786C27.8474 11.3442 28.1552 10.7939 28.5595 10.3275C28.9699 9.85483 29.4736 9.49103 30.0706 9.23605C30.6676 8.97486 31.3486 8.84427 32.1135 8.84427C32.8287 8.84427 33.4661 8.96242 34.0258 9.19874C34.5855 9.42884 35.0581 9.76155 35.4437 10.1969C35.8293 10.626 36.1216 11.1452 36.3206 11.7547C36.5258 12.3579 36.6284 13.0358 36.6284 13.7883V14.9823H28.4942V13.1073H33.774V12.8834C33.774 12.5289 33.7087 12.218 33.5781 11.9506C33.4537 11.6832 33.2671 11.4779 33.0184 11.3349C32.7758 11.1857 32.468 11.111 32.0949 11.111C31.7404 11.111 31.445 11.1857 31.2087 11.3349C30.9724 11.4842 30.7827 11.6956 30.6397 11.9692C30.5028 12.2366 30.4033 12.5507 30.3412 12.9114C30.279 13.2659 30.2479 13.6483 30.2479 14.0588V14.4132C30.2479 14.805 30.3007 15.1626 30.4064 15.486C30.5122 15.8094 30.6676 16.0861 30.8729 16.3162C31.0781 16.5463 31.3268 16.7267 31.6191 16.8573C31.9114 16.9878 32.2441 17.0531 32.6173 17.0531C33.0774 17.0531 33.5159 16.9661 33.9325 16.792C34.3492 16.6116 34.7099 16.3318 35.0146 15.9524L36.3765 17.5102C36.1713 17.8087 35.8821 18.0979 35.509 18.3778C35.1421 18.6514 34.7006 18.8753 34.1844 19.0494C33.6682 19.2235 33.0837 19.3106 32.4307 19.3106Z" fill="white"/>
</svg>
