<svg width="129" height="42" viewBox="0 0 129 42" fill="none" xmlns="http://www.w3.org/2000/svg">
<path d="M87.041 34V37.9014H72V34H87.041ZM102.298 9.82812H107.71V25.6992C107.71 27.5807 107.312 29.1634 106.515 30.4473C105.729 31.7311 104.633 32.6995 103.228 33.3525C101.822 34.0055 100.195 34.332 98.3467 34.332C96.4873 34.332 94.8493 34.0055 93.4326 33.3525C92.027 32.6995 90.9202 31.7311 90.1123 30.4473C89.3154 29.1634 88.917 27.5807 88.917 25.6992V9.82812H94.3457V25.6992C94.3457 26.7396 94.5007 27.5918 94.8105 28.2559C95.1315 28.9089 95.5908 29.3903 96.1885 29.7002C96.7861 29.999 97.5055 30.1484 98.3467 30.1484C99.1878 30.1484 99.9017 29.999 100.488 29.7002C101.086 29.3903 101.534 28.9089 101.833 28.2559C102.143 27.5918 102.298 26.7396 102.298 25.6992V9.82812ZM116.509 19.4902V40.9062H111.329V16.0371H116.16L116.509 19.4902ZM127.715 24.8193V25.168C127.715 26.474 127.565 27.6859 127.267 28.8037C126.968 29.9105 126.52 30.8789 125.922 31.709C125.335 32.5391 124.61 33.1865 123.747 33.6514C122.884 34.1051 121.882 34.332 120.742 34.332C119.658 34.332 118.717 34.1051 117.92 33.6514C117.134 33.1865 116.47 32.5446 115.928 31.7256C115.396 30.8955 114.965 29.9492 114.633 28.8867C114.312 27.8132 114.063 26.6676 113.886 25.4502V24.7695C114.063 23.4746 114.317 22.2738 114.649 21.167C114.981 20.0602 115.413 19.1029 115.944 18.2949C116.476 17.4759 117.134 16.8395 117.92 16.3857C118.706 15.932 119.641 15.7051 120.726 15.7051C121.854 15.7051 122.856 15.9209 123.73 16.3525C124.605 16.7842 125.335 17.404 125.922 18.2119C126.52 19.0088 126.968 19.9661 127.267 21.084C127.565 22.2018 127.715 23.4469 127.715 24.8193ZM122.519 25.168V24.8193C122.519 24.0889 122.463 23.4193 122.353 22.8105C122.242 22.1908 122.065 21.654 121.821 21.2002C121.578 20.7354 121.257 20.3757 120.858 20.1211C120.46 19.8665 119.973 19.7393 119.397 19.7393C118.778 19.7393 118.252 19.8389 117.82 20.0381C117.389 20.2373 117.04 20.5306 116.774 20.918C116.509 21.2943 116.315 21.7591 116.193 22.3125C116.083 22.8659 116.022 23.4967 116.011 24.2051V26.0312C116.022 26.8613 116.138 27.6029 116.359 28.2559C116.592 28.8978 116.951 29.4014 117.438 29.7666C117.937 30.1208 118.601 30.2979 119.431 30.2979C120.017 30.2979 120.504 30.1706 120.892 29.916C121.29 29.6504 121.605 29.2796 121.838 28.8037C122.081 28.3278 122.253 27.7799 122.353 27.1602C122.463 26.5404 122.519 25.8763 122.519 25.168Z" fill="black"/>
<path d="M0 0H40C56.5685 0 70 13.4315 70 30V40H0V0Z" fill="#C97CF8"/>
<path d="M20.2119 19.5566V23.7402H7.69434V19.5566H20.2119ZM9.4043 9.82812V34H3.99219V9.82812H9.4043ZM23.9473 9.82812V34H18.5518V9.82812H23.9473ZM33.1611 16.0371V34H27.9648V16.0371H33.1611ZM27.6494 11.3887C27.6494 10.6361 27.915 10.0218 28.4463 9.5459C28.9775 9.05892 29.6748 8.81543 30.5381 8.81543C31.4014 8.81543 32.0986 9.05892 32.6299 9.5459C33.1722 10.0218 33.4434 10.6361 33.4434 11.3887C33.4434 12.1302 33.1722 12.7445 32.6299 13.2314C32.0986 13.7074 31.4014 13.9453 30.5381 13.9453C29.6748 13.9453 28.9775 13.7074 28.4463 13.2314C27.915 12.7445 27.6494 12.1302 27.6494 11.3887ZM42.0928 20.2207V34H36.9131V16.0371H41.7773L42.0928 20.2207ZM47.4551 15.9043L47.3721 20.7354C47.1507 20.7021 46.863 20.6745 46.5088 20.6523C46.1546 20.6191 45.8503 20.6025 45.5957 20.6025C44.9316 20.6025 44.3561 20.6855 43.8691 20.8516C43.3932 21.0065 42.9948 21.2389 42.6738 21.5488C42.3639 21.8587 42.1315 22.2461 41.9766 22.7109C41.8216 23.1647 41.7441 23.6904 41.7441 24.2881L40.7646 23.8066C40.7646 22.6224 40.8809 21.5378 41.1133 20.5527C41.3457 19.5677 41.6833 18.7155 42.126 17.9961C42.5687 17.2656 43.111 16.7012 43.7529 16.3027C44.3949 15.9043 45.1253 15.7051 45.9443 15.7051C46.21 15.7051 46.4811 15.7217 46.7578 15.7549C47.0345 15.7881 47.2669 15.8379 47.4551 15.9043ZM57.7148 34.332C56.2871 34.332 55.0088 34.1051 53.8799 33.6514C52.751 33.1976 51.7936 32.5723 51.0078 31.7754C50.2331 30.9674 49.641 30.0378 49.2314 28.9863C48.8219 27.9349 48.6172 26.8115 48.6172 25.6162V24.9854C48.6172 23.6462 48.8053 22.4121 49.1816 21.2832C49.5579 20.1543 50.1058 19.1748 50.8252 18.3447C51.5557 17.5036 52.4521 16.8561 53.5146 16.4023C54.5771 15.9375 55.7891 15.7051 57.1504 15.7051C58.4232 15.7051 59.5576 15.9154 60.5537 16.3359C61.5498 16.7454 62.391 17.3376 63.0771 18.1123C63.7633 18.876 64.2835 19.8001 64.6377 20.8848C65.0029 21.9583 65.1855 23.1647 65.1855 24.5039V26.6289H50.709V23.292H60.1055V22.8936C60.1055 22.2627 59.9893 21.7093 59.7568 21.2334C59.5355 20.7575 59.2035 20.3923 58.7607 20.1377C58.3291 19.8721 57.7812 19.7393 57.1172 19.7393C56.4863 19.7393 55.9606 19.8721 55.54 20.1377C55.1195 20.4033 54.7819 20.7796 54.5273 21.2666C54.2839 21.7425 54.1068 22.3014 53.9961 22.9434C53.8854 23.5742 53.8301 24.2549 53.8301 24.9854V25.6162C53.8301 26.3135 53.9242 26.9499 54.1123 27.5254C54.3005 28.1009 54.5771 28.5934 54.9424 29.0029C55.3076 29.4124 55.7503 29.7334 56.2705 29.9658C56.7907 30.1982 57.3828 30.3145 58.0469 30.3145C58.8659 30.3145 59.6462 30.1595 60.3877 29.8496C61.1292 29.5286 61.7712 29.0306 62.3135 28.3555L64.7373 31.1279C64.3721 31.6592 63.8574 32.1738 63.1934 32.6719C62.5404 33.1589 61.7546 33.5573 60.8359 33.8672C59.9173 34.1771 58.877 34.332 57.7148 34.332Z" fill="white"/>
</svg>
