<svg width="309" height="61" viewBox="0 0 309 61" fill="none" xmlns="http://www.w3.org/2000/svg">
<path d="M23.3295 45.2705H14.0131L0.20532 8.31295H10.5996L20.84 38.0587L30.105 8.31295H36.4186L23.3295 45.2705ZM57.9772 45.2705H47.7882V13.0353H37.7275V8.31295H68.0378V13.0353H57.9772V45.2705ZM77.9958 45.2705H73.2735V8.31295H79.8951L102.352 33.6956V8.31295H107.049V45.2705H100.427L77.9958 19.9135V45.2705ZM140.464 53.9453H119.034V49.4539H140.464V53.9453ZM182.76 33.9779C182.76 35.5691 182.555 36.9722 182.144 38.187C181.751 39.4018 181.186 40.454 180.45 41.3438C179.732 42.2335 178.876 42.9778 177.884 43.5766C176.892 44.1755 175.805 44.6545 174.624 45.0139C173.461 45.3732 172.221 45.6298 170.903 45.7838C169.603 45.9378 168.277 46.0148 166.925 46.0148C165.146 46.0148 163.503 45.8779 161.997 45.6042C160.492 45.3475 159.071 44.9369 157.737 44.3722C156.419 43.7905 155.145 43.0462 153.913 42.1394C152.698 41.2326 151.483 40.129 150.268 38.8286L155.504 33.516C155.983 34.6965 156.642 35.7916 157.48 36.8011C158.319 37.7934 159.234 38.6489 160.226 39.3676C161.236 40.0862 162.28 40.6508 163.358 41.0615C164.435 41.4721 165.454 41.6774 166.412 41.6774C167.541 41.6774 168.602 41.6004 169.594 41.4464C170.587 41.2753 171.451 41.0016 172.186 40.6251C172.922 40.2487 173.495 39.7525 173.906 39.1366C174.334 38.5035 174.547 37.7165 174.547 36.7754C174.547 36.0568 174.385 35.4408 174.06 34.9275C173.735 34.4142 173.307 33.9779 172.777 33.6186C172.263 33.2422 171.673 32.9257 171.006 32.669C170.338 32.4124 169.654 32.1985 168.953 32.0274C168.268 31.8392 167.592 31.6766 166.925 31.5397C166.258 31.3858 165.667 31.2318 165.154 31.0778C164.145 30.7869 163.092 30.4789 161.997 30.1538C160.902 29.8116 159.824 29.4267 158.764 28.9989C157.703 28.5712 156.693 28.0835 155.735 27.536C154.794 26.9714 153.964 26.3126 153.246 25.5598C152.527 24.7899 151.954 23.9087 151.526 22.9163C151.098 21.9068 150.884 20.7519 150.884 19.4515C150.884 17.8945 151.073 16.5172 151.449 15.3195C151.843 14.1047 152.39 13.0524 153.092 12.1627C153.793 11.273 154.623 10.5287 155.581 9.92984C156.539 9.31388 157.591 8.82625 158.738 8.46694C159.884 8.09052 161.099 7.82532 162.382 7.67133C163.683 7.50023 165.009 7.41468 166.36 7.41468C168.208 7.41468 169.885 7.58578 171.391 7.92798C172.913 8.27018 174.316 8.75781 175.6 9.39088C176.883 10.0239 178.055 10.7853 179.116 11.6751C180.194 12.5477 181.203 13.5229 182.144 14.6009L176.909 19.9135C176.498 18.6816 175.925 17.5694 175.189 16.5771C174.47 15.5847 173.666 14.7377 172.777 14.0362C171.887 13.3176 170.954 12.7701 169.979 12.3937C169.004 12.0002 168.063 11.8034 167.156 11.8034C165.975 11.8034 164.889 11.8889 163.897 12.06C162.904 12.214 162.049 12.4792 161.33 12.8557C160.629 13.215 160.081 13.7111 159.687 14.3442C159.294 14.9602 159.097 15.7301 159.097 16.6541C159.097 17.3898 159.243 18.0143 159.533 18.5276C159.824 19.0409 160.209 19.4772 160.688 19.8365C161.185 20.1958 161.741 20.4953 162.357 20.7348C162.973 20.9572 163.606 21.154 164.256 21.3251C164.923 21.4962 165.573 21.6502 166.206 21.7871C166.857 21.9068 167.447 22.0437 167.977 22.1977C169.004 22.4886 170.082 22.7965 171.211 23.1216C172.34 23.4467 173.452 23.8317 174.547 24.2766C175.643 24.7043 176.686 25.2005 177.679 25.7651C178.671 26.3298 179.544 27.0056 180.296 27.7927C181.049 28.5626 181.648 29.4609 182.093 30.4875C182.538 31.497 182.76 32.6605 182.76 33.9779ZM227.7 26.7404C227.7 29.7175 227.186 32.4038 226.16 34.7992C225.133 37.1775 223.713 39.1965 221.899 40.8561C220.086 42.5158 217.938 43.7905 215.457 44.6802C212.976 45.5699 210.29 46.0148 207.399 46.0148C204.507 46.0148 201.821 45.5699 199.34 44.6802C196.859 43.7905 194.712 42.5158 192.898 40.8561C191.084 39.1965 189.664 37.1775 188.638 34.7992C187.611 32.4038 187.098 29.7175 187.098 26.7404C187.098 23.7119 187.602 21.0086 188.612 18.6303C189.638 16.2349 191.05 14.2159 192.847 12.5733C194.66 10.9137 196.808 9.64753 199.288 8.77492C201.769 7.8852 204.473 7.44034 207.399 7.44034C210.324 7.44034 213.028 7.8852 215.509 8.77492C217.99 9.64753 220.128 10.9137 221.925 12.5733C223.739 14.2159 225.15 16.2349 226.16 18.6303C227.186 21.0086 227.7 23.7119 227.7 26.7404ZM217.331 26.7404C217.331 25.6111 217.28 24.4562 217.177 23.2756C217.074 22.095 216.886 20.9487 216.612 19.8365C216.339 18.7244 215.962 17.6807 215.483 16.7054C215.021 15.7301 214.422 14.8832 213.687 14.1646C212.951 13.4288 212.061 12.8557 211.017 12.445C209.991 12.0173 208.785 11.8034 207.399 11.8034C205.996 11.8034 204.772 12.0173 203.729 12.445C202.685 12.8557 201.795 13.4203 201.059 14.1389C200.324 14.8575 199.725 15.7045 199.263 16.6797C198.801 17.655 198.433 18.6987 198.159 19.8109C197.903 20.9059 197.723 22.0523 197.62 23.25C197.518 24.4306 197.466 25.594 197.466 26.7404C197.466 27.8697 197.518 29.0246 197.62 30.2052C197.723 31.3858 197.911 32.5321 198.185 33.6443C198.459 34.7393 198.827 35.7745 199.288 36.7497C199.768 37.725 200.375 38.5805 201.111 39.3162C201.846 40.0349 202.728 40.608 203.754 41.0358C204.798 41.4635 206.013 41.6774 207.399 41.6774C208.75 41.6774 209.931 41.4635 210.94 41.0358C211.95 40.5909 212.822 40.0006 213.558 39.2649C214.294 38.5121 214.901 37.648 215.38 36.6727C215.877 35.6804 216.262 34.6367 216.535 33.5416C216.826 32.4295 217.032 31.2917 217.151 30.1282C217.271 28.9647 217.331 27.8354 217.331 26.7404ZM238.761 45.2705H234.039V8.31295H240.66L263.117 33.6956V8.31295H267.814V45.2705H261.192L238.761 19.9135V45.2705ZM306.465 33.9779C306.465 35.5691 306.26 36.9722 305.849 38.187C305.456 39.4018 304.891 40.454 304.156 41.3438C303.437 42.2335 302.581 42.9778 301.589 43.5766C300.597 44.1755 299.51 44.6545 298.33 45.0139C297.166 45.3732 295.926 45.6298 294.608 45.7838C293.308 45.9378 291.982 46.0148 290.63 46.0148C288.851 46.0148 287.208 45.8779 285.702 45.6042C284.197 45.3475 282.777 44.9369 281.442 44.3722C280.125 43.7905 278.85 43.0462 277.618 42.1394C276.403 41.2326 275.188 40.129 273.974 38.8286L279.209 33.516C279.688 34.6965 280.347 35.7916 281.185 36.8011C282.024 37.7934 282.939 38.6489 283.932 39.3676C284.941 40.0862 285.985 40.6508 287.063 41.0615C288.141 41.4721 289.159 41.6774 290.117 41.6774C291.246 41.6774 292.307 41.6004 293.299 41.4464C294.292 41.2753 295.156 41.0016 295.891 40.6251C296.627 40.2487 297.2 39.7525 297.611 39.1366C298.039 38.5035 298.253 37.7165 298.253 36.7754C298.253 36.0568 298.09 35.4408 297.765 34.9275C297.44 34.4142 297.012 33.9779 296.482 33.6186C295.968 33.2422 295.378 32.9257 294.711 32.669C294.044 32.4124 293.359 32.1985 292.658 32.0274C291.973 31.8392 291.297 31.6766 290.63 31.5397C289.963 31.3858 289.373 31.2318 288.859 31.0778C287.85 30.7869 286.797 30.4789 285.702 30.1538C284.607 29.8116 283.529 29.4267 282.469 28.9989C281.408 28.5712 280.398 28.0835 279.44 27.536C278.499 26.9714 277.669 26.3126 276.951 25.5598C276.232 24.7899 275.659 23.9087 275.231 22.9163C274.803 21.9068 274.59 20.7519 274.59 19.4515C274.59 17.8945 274.778 16.5172 275.154 15.3195C275.548 14.1047 276.095 13.0524 276.797 12.1627C277.498 11.273 278.328 10.5287 279.286 9.92984C280.244 9.31388 281.297 8.82625 282.443 8.46694C283.589 8.09052 284.804 7.82532 286.087 7.67133C287.388 7.50023 288.714 7.41468 290.065 7.41468C291.913 7.41468 293.59 7.58578 295.096 7.92798C296.619 8.27018 298.022 8.75781 299.305 9.39088C300.588 10.0239 301.76 10.7853 302.821 11.6751C303.899 12.5477 304.908 13.5229 305.849 14.6009L300.614 19.9135C300.203 18.6816 299.63 17.5694 298.894 16.5771C298.176 15.5847 297.371 14.7377 296.482 14.0362C295.592 13.3176 294.66 12.7701 293.684 12.3937C292.709 12.0002 291.768 11.8034 290.861 11.8034C289.681 11.8034 288.594 11.8889 287.602 12.06C286.609 12.214 285.754 12.4792 285.035 12.8557C284.334 13.215 283.786 13.7111 283.393 14.3442C282.999 14.9602 282.802 15.7301 282.802 16.6541C282.802 17.3898 282.948 18.0143 283.239 18.5276C283.529 19.0409 283.914 19.4772 284.394 19.8365C284.89 20.1958 285.446 20.4953 286.062 20.7348C286.678 20.9572 287.311 21.154 287.961 21.3251C288.628 21.4962 289.278 21.6502 289.911 21.7871C290.562 21.9068 291.152 22.0437 291.682 22.1977C292.709 22.4886 293.787 22.7965 294.916 23.1216C296.045 23.4467 297.158 23.8317 298.253 24.2766C299.348 24.7043 300.391 25.2005 301.384 25.7651C302.376 26.3298 303.249 27.0056 304.002 27.7927C304.754 28.5626 305.353 29.4609 305.798 30.4875C306.243 31.497 306.465 32.6605 306.465 33.9779Z" fill="url(#paint0_linear_272_26)"/>
<defs>
<linearGradient id="paint0_linear_272_26" x1="0" y1="30.2705" x2="309" y2="30.2705" gradientUnits="userSpaceOnUse">
<stop stop-color="#F4D34D"/>
<stop offset="1" stop-color="#A31515"/>
</linearGradient>
</defs>
</svg>
